<?xml version="1.0" encoding="UTF-8" standalone="no"?>
<!DOCTYPE svg PUBLIC "-//W3C//DTD SVG 1.1//EN" "http://www.w3.org/Graphics/SVG/1.1/DTD/svg11.dtd">
<svg width="100%" height="100%" viewBox="0 0 984 984" version="1.1" xmlns="http://www.w3.org/2000/svg" xmlns:xlink="http://www.w3.org/1999/xlink" xml:space="preserve" xmlns:serif="http://www.serif.com/" style="fill-rule:evenodd;clip-rule:evenodd;stroke-linejoin:round;stroke-miterlimit:2;">
    <g transform="matrix(1,0,0,1,-14949.3,-1078.87)">
        <g id="Artboard4" transform="matrix(1.13368,0,0,1.21292,128.404,663.426)">
            <rect x="13073.2" y="342.52" width="867.357" height="810.985" style="fill:none;"/>
            <clipPath id="_clip1">
                <rect x="13073.2" y="342.52" width="867.357" height="810.985"/>
            </clipPath>
            <g clip-path="url(#_clip1)">
                <g transform="matrix(3.22341,0,0,1.46422,7008.43,-1535.7)">
                    <g transform="matrix(0.252602,0,0,0.519532,-325.932,0)">
                        <path d="M8837.42,2920.43L8837.42,2524.63L9040.59,2524.63C8998.51,2572.76 8956.83,2643.84 8930.51,2698.63C8929.82,2700.07 8923.68,2711.84 8921.46,2716.43C8914.75,2730.38 8901.49,2758.27 8883.93,2799.72C8868.97,2834.99 8847.32,2892.64 8842.9,2905C8841.28,2909.53 8839.45,2914.68 8837.42,2920.43ZM9402.19,2876.86L9419.78,2876.86L9419.78,2524.63L9692.02,2524.63C9691.96,2524.79 9691.91,2524.95 9691.85,2525.1C9691.79,2525.28 9691.44,2526.31 9690.82,2528.17C9687.82,2537.17 9675.95,2572.69 9657.77,2624.19C9654.92,2632.27 9651.91,2640.75 9648.76,2649.58C9636.76,2683.2 9614.5,2746.39 9583.48,2827.25C9577.33,2843.28 9549.15,2919.69 9512.99,3005.48C9507.95,3017.42 9495.14,3049.09 9477,3089.7C9470.95,3103.25 9457.81,3133.79 9440.05,3169.85C9438.77,3172.43 9435.64,3179.15 9431.14,3188.32C9428.54,3171.38 9426.22,3154 9424.14,3136.56L9402.19,2876.86ZM9706.05,3193.33L9706.05,3478.86L9559.48,3478.86C9577.81,3458.96 9598.52,3430.77 9622.82,3388.79C9631.14,3374.41 9637.24,3361.99 9637.25,3361.98C9641.37,3353.78 9648.8,3338.73 9658.37,3317.25C9668.45,3294.6 9676.23,3275.25 9676.25,3275.2C9680.28,3264.86 9687.98,3244.87 9697.89,3216.79C9698.58,3214.83 9702.59,3203.45 9706.05,3193.33ZM9151.81,3108.4L9123.69,3108.4L9123.69,3478.86L8857.05,3478.86C8860.92,3468.9 8870.64,3444.01 8884.87,3408.83C8890.84,3394.08 8897.62,3377.5 8905.1,3359.44C8920.44,3322.41 8946.53,3258.98 8982.01,3179.51C8989.16,3163.5 9022.14,3087.15 9063.89,3002.4C9070.27,2989.43 9085.08,2958.38 9105.69,2919.09C9110.61,2909.69 9118.22,2894.9 9128.01,2876.86L9132.15,2876.86L9151.81,3108.4Z"/>
                    </g>
                    <g transform="matrix(0.310369,0,0,0.638343,904.585,-388.771)">
                        <path d="M3507.26,2923.31C3502.5,2884.68 3497.64,2860.8 3494.41,2846.08C3492.54,2837.55 3490.41,2834.55 3487.99,2834.79C3485.11,2835.07 3481.81,2839.94 3478.03,2845.57C3471.67,2855.04 3465.84,2864.37 3460.86,2872.61C3453.14,2885.39 3447.48,2895.56 3445.11,2899.64C3428.46,2928.31 3415.96,2952.77 3409.31,2965.46C3392.31,2997.88 3380.08,3023.5 3374.81,3034.2C3340.49,3103.87 3313.38,3166.62 3307.51,3179.77C3278.42,3244.91 3257.03,3296.9 3244.46,3327.25C3238.32,3342.07 3232.77,3355.67 3227.87,3367.76C3212.86,3404.85 3204.07,3427.8 3203.86,3428.3C3203.11,3430.1 3202.54,3431.99 3201.62,3433.7C3201.46,3433.99 3201.18,3434.52 3200.74,3435.21C3198.82,3438.31 3193.95,3444.7 3184.64,3447.56C3179.09,3449.26 3174.34,3448.81 3173.44,3448.72C3173.43,3448.72 3167.68,3447.59 3167.68,3447.59C3165.89,3446.84 3164.01,3446.26 3162.3,3445.33C3160.76,3444.5 3151.99,3439.74 3148.47,3428.35C3146.76,3422.8 3147.2,3418.05 3147.28,3417.16C3147.35,3416.39 3147.44,3415.47 3149.26,3407.7C3155.61,3380.67 3169.3,3324.9 3182,3277.69C3188.85,3252.23 3195.18,3229.44 3200.74,3209.8C3209.1,3180.3 3215.72,3157.91 3219.79,3144.27C3219.82,3144.18 3223.01,3133.7 3227.87,3118.19C3230.16,3110.91 3232.81,3102.51 3235.68,3093.57C3251.72,3043.52 3264.29,3007.72 3271.56,2987.38C3275.07,2977.58 3292.23,2931.88 3304.09,2903.92C3318,2871.09 3328.49,2849 3333.81,2837.95C3335.62,2834.21 3340.63,2824.6 3341.2,2823.43C3367.86,2767.91 3414.11,2687.8 3454.67,2663.77C3466.25,2656.91 3477.33,2652.21 3487.99,2649.54C3520.28,2641.45 3548.67,2651.98 3575.23,2677.4C3598.7,2699.86 3611.68,2747.92 3628.31,2823.77C3632.3,2841.94 3635.64,2862.86 3636.19,2866.28C3638.85,2882.94 3643.41,2923.31 3643.41,2923.31L3663.93,3166.01C3666.88,3190.89 3670.43,3215.64 3674.71,3238.69C3675.66,3243.79 3676.64,3248.81 3677.67,3253.72C3677.83,3254.51 3686.59,3295.03 3696.68,3297.26C3698.37,3297.63 3700.11,3297.4 3701.84,3296.71C3713.95,3291.88 3726.22,3264.6 3727.01,3263.21C3741.6,3237.53 3753.15,3212.52 3755.72,3207.31C3770.49,3177.32 3781.43,3151.93 3786.46,3140.66C3801.39,3107.22 3811.95,3081.14 3816.1,3071.3C3845.78,3000.88 3868.92,2938.15 3873.97,2924.99C3899.38,2858.76 3917.61,2807.01 3927.44,2779.47C3930.03,2772.24 3932.49,2765.29 3934.83,2758.66C3949.75,2716.39 3959.49,2687.23 3961.96,2679.84C3962.33,2678.74 3962.53,2678.12 3962.57,2678.01C3963.16,2676.34 3963.59,2674.6 3964.34,2672.99C3965.02,2671.55 3968.88,2663.32 3979.07,2659.57C3984.02,2657.74 3988.37,2657.92 3989.18,2657.96C3989.2,2657.96 3994.48,2658.7 3994.48,2658.71C3996.15,2659.3 3997.88,2659.73 3999.47,2660.49C4000.91,2661.17 4009.11,2665.05 4012.87,2675.23C4014.7,2680.18 4014.54,2684.51 4014.51,2685.33C4014.48,2686.07 4014.46,2686.71 4013.14,2694.43C4006.33,2734.28 3996.51,2787.19 3990.05,2819.44C3977.8,2880.54 3967.55,2926.72 3961.96,2951.49L3961.31,2954.35C3961.3,2954.4 3953.6,2987.51 3943.4,3027.75C3940.33,3039.9 3937.45,3050.99 3934.83,3060.96C3928.81,3083.86 3924.11,3100.83 3921.27,3110.97C3918.54,3120.71 3906.3,3161.63 3897.52,3188.25C3894.67,3196.89 3889.6,3211.24 3888.9,3213.24C3881.05,3235.47 3874.95,3251.31 3871.76,3259.5C3871.74,3259.54 3865.74,3274.45 3857.96,3291.91C3850.55,3308.55 3844.79,3320.22 3841.6,3326.57C3841.6,3326.58 3837.13,3335.68 3831.03,3346.22C3794.55,3409.24 3770.85,3428.28 3749.19,3440.4C3745.76,3442.32 3742.38,3444.06 3739,3445.78C3716.58,3457.22 3694.93,3459.88 3674.71,3456.46C3652.93,3452.78 3632.81,3442.03 3615.14,3427.57C3586.78,3404.36 3562.33,3362.99 3544.96,3281.8C3541.14,3263.96 3537.76,3242.99 3537.21,3239.61C3533.84,3218.71 3530.64,3192.26 3527.86,3166.01L3507.26,2923.31Z" style="fill:rgb(255,209,45);"/>
                    </g>
                </g>
            </g>
        </g>
    </g>
</svg>
