<svg xmlns="http://www.w3.org/2000/svg" xml:space="preserve" style="fill-rule:evenodd;clip-rule:evenodd;stroke-linejoin:round;stroke-miterlimit:2" viewBox="0 0 984 984">
  <path d="M13073.2 342.52h867.357v810.985H13073.2z" style="fill:#fff" transform="matrix(1.13368 0 0 1.21292 -14820.896 -415.45)"/>
  <path d="M168.258 471.773V135.824h169.226c-33.098 34.12-66.957 92.092-87.812 135.51-.514 1.074-5.1 9.857-6.748 13.28-4.965 10.304-14.755 30.906-27.73 61.521-11.05 26.067-27.043 68.65-30.309 77.791a2797.96 2797.96 0 0 0-16.627 47.847Zm409.608-73.317h24.613V135.824h213.45v10.677c-3.467 10.35-11.691 34.71-23.435 67.994a5723.828 5723.828 0 0 1-6.74 18.976c-8.97 25.12-25.605 72.34-48.787 132.766-4.6 11.99-25.671 69.135-52.723 133.288-3.765 8.948-13.361 32.659-26.939 63.065-4.548 10.178-14.42 33.121-27.767 60.21-2.244 4.563-12.184 26.119-24.837 48.562-.022-.06-.03-.097-.037-.111-.753-3.617-1.476-7.3-2.185-11.028v-89.125h-10.013l-14.6-172.642ZM815.93 590.693v256.63h-128.06c15.232-14.302 32.77-36.327 54.474-73.832 5.988-10.35 10.38-19.29 10.387-19.297 3.02-6.01 8.47-17.045 15.48-32.793 7.38-16.575 13.077-30.734 13.092-30.772 2.975-7.635 8.664-22.406 15.986-43.142.657-1.864 5.391-15.3 8.06-23.382 3.266-9.91 7.054-21.952 10.581-33.412Zm-401.765-19.595h-32.457v276.225H168.586c.201-.507.41-1.014.619-1.521.193-.463 8.283-21.571 22.092-55.699 4.46-11.02 9.522-23.42 15.122-36.923 11.46-27.678 30.965-75.085 57.487-134.496 5.346-11.975 30.027-69.097 61.268-132.513 4.78-9.715 15.875-32.971 31.316-62.416 5.011-9.566 13.72-26.567 25.217-46.997v21.698h17.806l14.651 172.642Z"/>
  <path d="M3507.26 2923.31c-4.76-38.63-9.62-62.51-12.85-77.23-1.87-8.53-4-11.53-6.42-11.29-2.88.28-6.18 5.15-9.96 10.78-6.36 9.47-12.19 18.8-17.17 27.04-7.72 12.78-13.38 22.95-15.75 27.03-16.65 28.67-29.15 53.13-35.8 65.82-17 32.42-29.23 58.04-34.5 68.74-34.32 69.67-61.43 132.42-67.3 145.57-29.09 65.14-50.48 117.13-63.05 147.48a5643.51 5643.51 0 0 0-16.59 40.51c-15.01 37.09-23.8 60.04-24.01 60.54-.75 1.8-1.32 3.69-2.24 5.4-.16.29-.44.82-.88 1.51-1.92 3.1-6.79 9.49-16.1 12.35-5.55 1.7-10.3 1.25-11.2 1.16-.01 0-5.76-1.13-5.76-1.13-1.79-.75-3.67-1.33-5.38-2.26-1.54-.83-10.31-5.59-13.83-16.98-1.71-5.55-1.27-10.3-1.19-11.19.07-.77.16-1.69 1.98-9.46 6.35-27.03 20.04-82.8 32.74-130.01a5397.32 5397.32 0 0 1 18.74-67.89c8.36-29.5 14.98-51.89 19.05-65.53.03-.09 3.22-10.57 8.08-26.08 2.29-7.28 4.94-15.68 7.81-24.62 16.04-50.05 28.61-85.85 35.88-106.19 3.51-9.8 20.67-55.5 32.53-83.46 13.91-32.83 24.4-54.92 29.72-65.97 1.81-3.74 6.82-13.35 7.39-14.52 26.66-55.52 72.91-135.63 113.47-159.66 11.58-6.86 22.66-11.56 33.32-14.23 32.29-8.09 60.68 2.44 87.24 27.86 23.47 22.46 36.45 70.52 53.08 146.37 3.99 18.17 7.33 39.09 7.88 42.51 2.66 16.66 7.22 57.03 7.22 57.03l20.52 242.7c2.95 24.88 6.5 49.63 10.78 72.68.95 5.1 1.93 10.12 2.96 15.03.16.79 8.92 41.31 19.01 43.54 1.69.37 3.43.14 5.16-.55 12.11-4.83 24.38-32.11 25.17-33.5 14.59-25.68 26.14-50.69 28.71-55.9 14.77-29.99 25.71-55.38 30.74-66.65 14.93-33.44 25.49-59.52 29.64-69.36 29.68-70.42 52.82-133.15 57.87-146.31 25.41-66.23 43.64-117.98 53.47-145.52 2.59-7.23 5.05-14.18 7.39-20.81 14.92-42.27 24.66-71.43 27.13-78.82.37-1.1.57-1.72.61-1.83.59-1.67 1.02-3.41 1.77-5.02.68-1.44 4.54-9.67 14.73-13.42 4.95-1.83 9.3-1.65 10.11-1.61.02 0 5.3.74 5.3.75 1.67.59 3.4 1.02 4.99 1.78 1.44.68 9.64 4.56 13.4 14.74 1.83 4.95 1.67 9.28 1.64 10.1-.03.74-.05 1.38-1.37 9.1-6.81 39.85-16.63 92.76-23.09 125.01-12.25 61.1-22.5 107.28-28.09 132.05l-.65 2.86c-.01.05-7.71 33.16-17.91 73.4-3.07 12.15-5.95 23.24-8.57 33.21-6.02 22.9-10.72 39.87-13.56 50.01-2.73 9.74-14.97 50.66-23.75 77.28-2.85 8.64-7.92 22.99-8.62 24.99-7.85 22.23-13.95 38.07-17.14 46.26-.02.04-6.02 14.95-13.8 32.41-7.41 16.64-13.17 28.31-16.36 34.66 0 .01-4.47 9.11-10.57 19.65-36.48 63.02-60.18 82.06-81.84 94.18-3.43 1.92-6.81 3.66-10.19 5.38-22.42 11.44-44.07 14.1-64.29 10.68-21.78-3.68-41.9-14.43-59.57-28.89-28.36-23.21-52.81-64.58-70.18-145.77-3.82-17.84-7.2-38.81-7.75-42.19-3.37-20.9-6.57-47.35-9.35-73.6l-20.6-242.7Z" style="fill:#ffd12d" transform="matrix(.91614 0 0 .91614 -2788.927 -2304.565)"/>
</svg>
